Coordinates
version=1
nRows=14
nColumns=33
inDegrees=yes

Units are S.I. units (second, meters, Newtons, ...)
Angles are in degrees.

endheader
time	ground_thorax_rot_x	ground_thorax_rot_y	ground_thorax_rot_z	ground_thorax_tx	ground_thorax_ty	ground_thorax_tz	clav_prot_r	clav_elev_r	scapula_abduction_r	scapula_elevation_r	scapula_upward_rot_r	scapula_winging_r	shoulder_elv_r	plane_of_elev_r	axial_rot_r	elbow_flexion_r	pro_sup_r	wrist_flex_r	wrist_dev_r	clav_prot_l	clav_elev_l	scapula_abduction_l	scapula_elevation_l	scapula_upward_rot_l	scapula_winging_l	shoulder_elv_l	plane_of_elev_l	axial_rot_l	elbow_flexion_l	pro_sup_l	wrist_flex_l	wrist_dev_l
      2.83000000	      0.29783405	      9.86512380	      0.61304109	     -0.19001276	      1.00006815	      0.01376159	    -20.26394087	    -11.88828903	    -27.89652158	     -6.78212302	      5.68402051	      4.35625396	     62.72798142	    -47.54190569	     50.78880532	     88.64898424	     11.36653815	     21.37036107	     -7.25123699	     -1.61570604	     -4.10472059	     -0.16739108	     -3.57485602	     -3.53048237	     -0.44228471	     51.49154255	    -43.18208876	    -21.29018043	     85.80684092	     14.75010621	     -6.60251422	    -18.86111205
      2.84000000	      0.22677342	      9.99051455	      0.38748026	     -0.19022990	      0.99995022	      0.01365376	    -20.31925448	    -12.08948164	    -28.12687198	     -6.85880488	      5.36002557	      4.52188323	     62.27150891	    -46.71775338	     49.52057725	     88.96091810	      9.95478872	     18.95930299	     -5.21321677	     -1.50000557	     -4.05825706	     -0.35998358	     -3.62604449	     -3.54809195	     -0.37898174	     51.58128565	    -42.42703730	    -20.98540522	     86.27222131	     14.20648902	     -4.95654950	    -17.23373276
      2.85000000	      0.39908256	     10.14828909	      0.32060612	     -0.19031492	      1.00000220	      0.01360675	    -20.34494506	    -12.23349657	    -28.14627575	     -6.99599005	      5.36065479	      4.59443783	     62.28340719	    -46.27466141	     48.93004786	     89.19927689	      9.49164838	     18.28292745	     -4.61165662	     -1.43425264	     -4.21824468	     -0.49868507	     -3.49094227	     -3.57513729	     -0.38005231	     51.50400526	    -41.80879366	    -20.85453617	     86.24769376	     14.02475761	     -4.39958662	    -16.65060208
      2.86000000	      0.21972263	     10.20552959	      0.39799184	     -0.19044354	      0.99974654	      0.01348911	    -20.33616918	    -12.35056888	    -28.25552567	     -7.00848038	      5.08858783	      4.70791577	     61.87678459	    -45.56485427	     48.06848091	     89.27760863	      8.52050879	     16.66450202	     -3.22371664	     -1.35133424	     -4.12062461	     -0.61568223	     -3.59471495	     -3.60774779	     -0.33095145	     51.71465342	    -41.34988114	    -20.68632163	     86.70455042	     13.54899757	     -3.26370220	    -15.56050476
      2.87000000	      0.23638441	     10.27163046	      0.38642586	     -0.19054408	      0.99996754	      0.01337441	    -20.35734862	    -12.56916481	    -28.30437229	     -7.18316191	      4.99813413	      4.83727933	     61.65697338	    -44.95436899	     47.40143071	     89.19271072	      7.91396262	     15.68368876	     -2.40213661	     -1.31366444	     -4.22265469	     -0.67129663	     -3.53294772	     -3.68554243	     -0.35507088	     51.69770506	    -40.76161840	    -20.36113801	     86.76193982	     13.19621914	     -2.58772494	    -14.80130974
      2.88000000	      0.25638239	     10.29901929	      0.67880564	     -0.19064861	      1.00004977	      0.01322696	    -20.29514207	    -12.72538884	    -28.13163612	     -7.35753277	      5.08491953	      4.90564322	     61.66785855	    -44.66776102	     47.26305040	     88.99987464	      7.84639977	     15.53098871	     -2.31512444	     -1.24506949	     -4.28820485	     -0.81239300	     -3.46866815	     -3.67355615	     -0.32562589	     51.70535258	    -40.56116554	    -20.46394561	     86.74824909	     13.16740203	     -2.49053454	    -14.72438967
      2.89000000	      0.12352009	     10.46241189	      0.67283297	     -0.19090001	      0.99978931	      0.01326512	    -20.29003504	    -12.69848810	    -28.33966894	     -7.18725075	      4.67914139	      4.97325183	     60.93860061	    -43.70051527	     45.84599635	     88.99119454	      6.32612574	     13.14457973	     -0.32205565	     -1.14379653	     -4.20120690	     -0.92804407	     -3.60040011	     -3.79758826	     -0.28993447	     51.91607256	    -39.68739408	    -20.19860092	     86.97265138	     12.26388845	     -0.81912465	    -12.98555709
      2.90000000	      0.14140036	     10.46758274	      0.55193732	     -0.19091127	      1.00002714	      0.01311695	    -20.28969695	    -13.03514892	    -28.30110093	     -7.49625418	      4.65514120	      5.15350517	     60.68779236	    -43.05753783	     45.27348203	     88.67324975	      5.92272602	     12.50444913	      0.14403927	     -1.13100362	     -4.37789471	     -0.95512995	     -3.46732255	     -3.86944606	     -0.33697030	     51.86652588	    -39.06745455	    -19.74375784	     86.94289002	     11.98240225	     -0.44909328	    -12.46064787
      2.91000000	      0.08555987	     10.58676512	      0.76843351	     -0.19116491	      0.99974523	      0.01313227	    -20.22270978	    -12.97438965	    -28.33127566	     -7.34386638	      4.40029572	      5.17519800	     60.28587443	    -42.26440922	     44.39453552	     88.48158409	      4.85658256	     10.94771039	      1.45820619	     -1.00072798	     -4.33266314	     -1.09233613	     -3.60179128	     -4.09373555	     -0.31696557	     52.08767564	    -38.37473594	    -19.65389870	     87.03421194	     11.35497714	      0.74068567	    -11.22475725
      2.92000000	      0.09863135	     10.62018705	      0.64596156	     -0.19116475	      0.99998405	      0.01299421	    -20.21157238	    -13.31748051	    -28.28122078	     -7.65516573	      4.36594415	      5.36380056	     60.00256877	    -41.63391619	     43.79340723	     88.05956404	      4.49009805	     10.31950662	      1.84159707	     -0.98947598	     -4.53298110	     -1.13063503	     -3.43660302	     -4.14008391	     -0.36351867	     52.03772624	    -37.71659238	    -19.22871464	     86.91922967	     11.12489926	      1.07200234	    -10.74186928
      2.93000000	      0.05369198	     10.73937542	      0.84361606	     -0.19138287	      0.99970065	      0.01304283	    -20.12695257	    -13.25865685	    -28.27258683	     -7.50867017	      4.12644268	      5.38319627	     59.55954880	    -40.81653175	     42.88995360	     87.74310830	      3.47501393	      8.76025208	      3.08726887	     -0.86365306	     -4.48438564	     -1.26458656	     -3.56991965	     -4.35339153	     -0.34037621	     52.17365668	    -36.93718250	    -19.04246147	     86.91087259	     10.56424659	      2.27463944	     -9.50999552
      2.94000000	      0.08002382	     10.81539065	      1.11298689	     -0.19137835	      0.99994903	      0.01281229	    -20.03834405	    -13.47529584	    -28.06730324	     -7.72918452	      4.18427886	      5.49034979	     59.56068560	    -40.51783034	     42.77147696	     87.23602980	      3.43721225	      8.56924728	      3.15413205	     -0.80284836	     -4.64287602	     -1.40661931	     -3.42257176	     -4.34944975	     -0.33703158	     52.12176615	    -36.60994672	    -19.03130079	     86.75008243	     10.54092636	      2.34851020	     -9.40341369
      2.95000000	      0.02269403	     10.92611312	      0.88066320	     -0.19157316	      0.99960649	      0.01301510	    -19.98906492	    -13.54880452	    -28.14467866	     -7.67623054	      3.85031813	      5.59722781	     58.77257799	    -39.37369071	     41.31826024	     86.78964094	      2.22704325	      6.66771594	      4.59129763	     -0.70371107	     -4.64432280	     -1.51073450	     -3.49756398	     -4.53145330	     -0.33208626	     52.16080425	    -35.41422380	    -18.37987709	     86.60213090	      9.87393008	      3.80506375	     -7.84534190
      2.96000000	      0.05730103	     10.93873457	      0.83162015	     -0.19157348	      0.99982914	      0.01294241	    -19.93562598	    -13.88179875	    -28.01660503	     -7.98498915	      3.83873199	      5.78139736	     58.54871263	    -38.75906306	     40.85512011	     86.15572423	      1.94934101	      6.13213416	      4.91979161	     -0.65976351	     -4.85599675	     -1.58665113	     -3.34718750	     -4.63827585	     -0.37726918	     52.06073493	    -34.73187475	    -17.87411992	     86.33109451	      9.68195768	      4.11729672	     -7.34355831
